<svg xmlns="http://www.w3.org/2000/svg" width="188" height="321" fill="none"><path fill="#EEAD49" d="M126.64 124.889c-2.225-2.828-4.35-5.72-6.172-8.804-8.068-13.115-11.386-28.547-17.816-42.423-6.394-14.04-17.4-27.548-32.615-29.887C52.05 41.08 36.272 54.523 20.2 63.06 6.573 70.322-8.54 74.143-23.147 79.2c-14.608 5.057-29.151 11.771-39.62 23.107-9.215 9.971-15.884 26.385-10.937 39.932 2.538 6.873 8.306 11.265 11.777 17.828 10.093 19.183 14.557 39.97 26.646 58.732C-23.257 237.46.608 272.494 23.842 277.65c6.756 1.499 13.85-.471 20.513-2.45 22.287-6.552 44.776-13.231 65.937-22.886 14.141-6.457 27.988-14.709 37.092-27.298 16.434-22.633 13.056-55.713-3.016-78.731-5.439-7.431-11.986-14.157-17.728-21.396z" opacity=".8"/><path stroke="#F06F47" stroke-miterlimit="10" stroke-width="3" d="M99.763 118.233c-2.225-2.828-4.35-5.72-6.172-8.804-8.068-13.115-11.386-28.548-17.816-42.423-6.394-14.04-17.4-27.548-32.615-29.887C25.172 34.424 9.395 47.866-6.677 56.402c-13.627 7.263-28.74 11.085-43.347 16.142-14.608 5.057-29.151 11.77-39.62 23.106-9.215 9.971-15.884 26.386-10.937 39.932 2.538 6.874 8.306 11.266 11.777 17.828 10.093 19.184 14.557 39.971 26.646 58.733 12.024 18.661 35.889 53.694 59.123 58.85 6.756 1.5 13.85-.47 20.513-2.45 22.287-6.551 44.776-13.231 65.937-22.885 14.14-6.457 27.988-14.709 37.092-27.298 16.434-22.633 13.056-55.714-3.016-78.731-5.439-7.431-11.986-14.157-17.728-21.396z"/></svg>