<svg xmlns="http://www.w3.org/2000/svg" width="77" height="119" fill="none"><path fill="#EEAD49" fill-opacity=".6" d="M92.175 42.976c-.925-.94-1.816-1.906-2.604-2.955-3.47-4.448-5.303-9.932-8.206-14.723-2.897-4.852-7.451-9.323-13.085-9.558-6.658-.252-11.858 5.28-17.363 9.04-4.667 3.197-10.013 5.2-15.127 7.634-5.113 2.433-10.136 5.467-13.488 10.018-2.95 4.003-4.713 10.25-2.363 14.981 1.203 2.4 3.481 3.765 5.01 6.013 4.453 6.575 6.92 13.962 12.082 20.303 5.134 6.306 15.242 18.094 23.91 19.029 2.52.272 5.023-.733 7.369-1.724 7.849-3.288 15.765-6.631 23.078-11.004 4.886-2.924 9.593-6.49 12.397-11.442 5.066-8.906 2.495-20.812-4.289-28.54-2.281-2.486-4.938-4.67-7.321-7.072z"/><path stroke="#F06F47" stroke-miterlimit="10" stroke-width="2" d="M82.12 41.642c-.925-.94-1.815-1.906-2.604-2.955-3.469-4.448-5.302-9.932-8.206-14.722-2.897-4.853-7.451-9.325-13.085-9.56-6.658-.252-11.857 5.282-17.362 9.041-4.667 3.197-10.014 5.2-15.127 7.634-5.114 2.433-10.136 5.467-13.488 10.018-2.95 4.004-4.713 10.25-2.363 14.981 1.202 2.4 3.48 3.765 5.01 6.013 4.452 6.575 6.92 13.962 12.081 20.303 5.134 6.306 15.243 18.094 23.91 19.029 2.52.272 5.024-.733 7.37-1.724 7.848-3.288 15.764-6.631 23.077-11.004 4.887-2.924 9.594-6.49 12.398-11.442 5.065-8.906 2.495-20.812-4.29-28.54-2.281-2.486-4.937-4.67-7.32-7.072z"/></svg>