<svg xmlns="http://www.w3.org/2000/svg" width="42" height="42" fill="none"><g stroke="#F06F47" stroke-linecap="round" stroke-linejoin="round" stroke-width="1.5"><path d="M14.315 28.035c-1.33-.122-2.643-.735-3.658-1.802-2.31-2.433-2.31-6.423 0-8.855l3.833-4.025c2.31-2.433 6.107-2.433 8.435 0 2.31 2.432 2.31 6.422 0 8.855l-1.908 2.012"/><path d="M27.685 13.965c1.33.122 2.642.735 3.657 1.802 2.31 2.433 2.31 6.423 0 8.855l-3.832 4.025c-2.31 2.433-6.108 2.433-8.435 0-2.31-2.432-2.31-6.422 0-8.855l1.907-2.012"/><path d="M15.75 38.5h10.5C35 38.5 38.5 35 38.5 26.25v-10.5C38.5 7 35 3.5 26.25 3.5h-10.5C7 3.5 3.5 7 3.5 15.75v10.5C3.5 35 7 38.5 15.75 38.5z"/></g></svg>