<svg xmlns="http://www.w3.org/2000/svg" width="36" height="36" fill="none"><g stroke="#F06F47"><path stroke-width="1.5" d="M1.375 18c0-7.837 0-11.756 2.435-14.19C6.244 1.375 10.163 1.375 18 1.375s11.756 0 14.19 2.435c2.435 2.434 2.435 6.353 2.435 14.19s0 11.756-2.435 14.19c-2.434 2.435-6.353 2.435-14.19 2.435s-11.756 0-14.19-2.435C1.375 29.756 1.375 25.837 1.375 18z"/><path stroke-linejoin="round" stroke-width="1.5" d="M1.375 12.75h33.25"/><path stroke-linecap="round" stroke-linejoin="round" stroke-width="1.5" d="M19.75 19.75h7m-7 7h3.5"/><path stroke-linecap="round" stroke-linejoin="round" stroke-width="2" d="M9.25 7.5h.015m6.985 0h.015"/><path stroke-linecap="round" stroke-linejoin="round" stroke-width="1.5" d="M12.75 12.75v21.875"/></g></svg>