<svg xmlns="http://www.w3.org/2000/svg" width="36" height="36" fill="none"><g stroke="#F06F47" stroke-width="1.5"><path stroke-linecap="round" d="M8.375 27.625v-5.25m8.75 5.25v-15.75m8.75 15.75v-7"/><path d="M34.625 6.625a5.25 5.25 0 1 1-10.5 0 5.25 5.25 0 0 1 10.5 0z"/><path stroke-linecap="round" stroke-linejoin="round" d="M34.617 16.25s.008.594.008 1.75c0 7.837 0 11.756-2.435 14.19-2.434 2.435-6.353 2.435-14.19 2.435s-11.756 0-14.19-2.435C1.375 29.756 1.375 25.837 1.375 18s0-11.756 2.435-14.19C6.244 1.375 10.163 1.375 18 1.375h1.75"/></g></svg>