<svg xmlns="http://www.w3.org/2000/svg" width="34" height="38" fill="none"><g stroke="#F06F47" stroke-width="1.5"><path d="M13.5 15.5a3.5 3.5 0 1 0 7 0 3.5 3.5 0 0 0-7 0z"/><path stroke-linecap="round" d="M27.93 24.25A13.941 13.941 0 0 0 31 15.5c0-7.732-6.268-14-14-14S3 7.768 3 15.5c0 3.31 1.15 6.353 3.07 8.75"/><path d="M1.25 30.375c0-2.458 0-3.687.53-4.57.23-.382.526-.71.87-.965.794-.59 1.9-.59 4.113-.59h20.475c2.212 0 3.317 0 4.112.59.344.255.64.583.87.965.53.883.53 2.112.53 4.57s0 3.687-.53 4.57c-.23.382-.526.71-.87.965-.795.59-1.9.59-4.113.59H6.764c-2.213 0-3.319 0-4.113-.59a3.346 3.346 0 0 1-.87-.965c-.53-.883-.53-2.112-.53-4.57z"/><path stroke-linecap="round" stroke-linejoin="round" d="M15.25 29.5h3.5m5.058-19.931 3.52-3.52"/></g></svg>