<svg xmlns="http://www.w3.org/2000/svg" width="42" height="42" fill="none"><g stroke="#F06F47" stroke-linecap="round" stroke-linejoin="round" stroke-width="1.5" clip-path="url(#a)"><path d="M19.198 3.5h-3.5c-8.75 0-12.25 3.5-12.25 12.25v10.5c0 8.75 3.5 12.25 12.25 12.25h10.5c8.75 0 12.25-3.5 12.25-12.25v-3.5"/><path d="M38.29 6.23c-2.152 5.373-7.56 12.688-12.075 16.31l-2.765 2.205c-.35.263-.7.473-1.102.63 0-.262-.018-.525-.053-.805-.158-1.172-.683-2.275-1.628-3.202-.962-.963-2.117-1.505-3.307-1.663-.28-.017-.56-.035-.84-.017.157-.438.385-.84.683-1.173l2.204-2.765c3.623-4.515 10.956-9.957 16.31-12.11a1.981 1.981 0 0 1 2.136.438c.524.525.77 1.33.437 2.152z"/><path d="M22.365 25.359c0 1.54-.595 3.01-1.697 4.13-.858.857-2.013 1.452-3.395 1.627l-3.448.368c-1.872.21-3.482-1.383-3.272-3.29l.367-3.448c.333-3.062 2.888-5.022 5.618-5.075.28-.017.56 0 .84.018 1.19.157 2.345.7 3.307 1.662.945.945 1.47 2.03 1.628 3.203.035.28.052.56.052.805zm5.32-4.394a6.628 6.628 0 0 0-6.633-6.632"/></g><defs><clipPath id="a"><path fill="#fff" d="M0 0h42v42H0z"/></clipPath></defs></svg>