<svg xmlns="http://www.w3.org/2000/svg" width="42" height="42" fill="none"><g stroke="#F06F47" stroke-linecap="round" stroke-linejoin="round" stroke-width="1.5"><path d="M38.5 21c0-9.66-7.84-17.5-17.5-17.5S3.5 11.34 3.5 21 11.34 38.5 21 38.5"/><path d="M14 5.25h1.75a49.741 49.741 0 0 0 0 31.5H14m12.25-31.5A49.97 49.97 0 0 1 28.805 21"/><path d="M5.25 28v-1.75A49.97 49.97 0 0 0 21 28.805M5.25 15.75a49.741 49.741 0 0 1 31.5 0m-4.9 21.7a5.6 5.6 0 1 0 0-11.2 5.6 5.6 0 0 0 0 11.2zm6.65 1.05-1.75-1.75"/></g></svg>