<svg xmlns="http://www.w3.org/2000/svg" width="42" height="42" fill="none"><g stroke="#F06F47" stroke-linecap="round" stroke-linejoin="round" stroke-width="1.5"><path stroke-miterlimit="10" d="M21 9.73h17.5"/><path d="M24.885 3.5h9.73c3.115 0 3.885.77 3.885 3.85v7.193c0 3.08-.77 3.85-3.885 3.85h-9.73c-3.115 0-3.885-.77-3.885-3.85V7.35c0-3.08.77-3.85 3.885-3.85z"/><path stroke-miterlimit="10" d="M3.5 29.855H21"/><path d="M7.385 23.625h9.73c3.115 0 3.885.77 3.885 3.85v7.192c0 3.08-.77 3.85-3.885 3.85h-9.73c-3.115 0-3.885-.77-3.885-3.85v-7.192c0-3.08.77-3.85 3.885-3.85zM38.5 26.25A12.24 12.24 0 0 1 26.25 38.5l1.838-3.063M3.5 15.75C3.5 8.977 8.978 3.5 15.75 3.5l-1.837 3.063"/></g></svg>