<svg xmlns="http://www.w3.org/2000/svg" width="42" height="42" fill="none"><path stroke="#F06F47" stroke-linecap="round" stroke-linejoin="round" stroke-width="1.5" d="m26.933 9.117 2.467 4.935c.333.683 1.225 1.33 1.978 1.47l4.462.736c2.853.472 3.518 2.537 1.47 4.602l-3.482 3.483c-.578.577-.91 1.715-.718 2.537l.998 4.305c.787 3.395-1.033 4.725-4.025 2.94L25.9 31.64c-.752-.455-2.012-.455-2.765 0l-4.182 2.485c-2.993 1.767-4.813.455-4.025-2.94l.997-4.305c.193-.805-.14-1.942-.717-2.537l-3.483-3.483c-2.047-2.047-1.382-4.113 1.47-4.602l4.463-.735c.752-.123 1.645-.788 1.977-1.47l2.468-4.936c1.312-2.677 3.482-2.677 4.83 0zM14 8.75H3.5m5.25 24.5H3.5M5.25 21H3.5"/></svg>