<svg xmlns="http://www.w3.org/2000/svg" width="42" height="42" fill="none"><path stroke="#F06F47" stroke-linecap="round" stroke-linejoin="round" stroke-width="1.5" d="M18.357 3.903 9.625 7.175c-2.013.753-3.658 3.133-3.658 5.285v13.003c0 2.065 1.365 4.777 3.028 6.02L16.52 37.1c2.467 1.855 6.527 1.855 8.995 0l7.525-5.617c1.662-1.243 3.027-3.955 3.027-6.02V12.46c0-2.152-1.645-4.532-3.657-5.285l-8.733-3.272c-1.487-.543-3.867-.543-5.32 0z"/><path stroke="#F06F47" stroke-linecap="round" stroke-linejoin="round" stroke-width="1.5" d="M21 19.11h-.228c-1.645-.052-2.957-1.417-2.957-3.08a3.085 3.085 0 0 1 3.08-3.08 3.085 3.085 0 0 1 3.08 3.08c-.018 1.68-1.33 3.028-2.975 3.08zm-3.483 4.9c-1.68 1.12-1.68 2.957 0 4.077 1.908 1.278 5.04 1.278 6.948 0 1.68-1.12 1.68-2.957 0-4.077-1.89-1.278-5.023-1.278-6.948 0z"/></svg>